<svg xmlns="http://www.w3.org/2000/svg" viewBox="0 0 253.2 251.5" enable-background="new 0 0 253.2 251.5"><path fill="#4F9AD4" d="M39.8 107.4s-1.8-4.4-1.8-9.8l1.8-9.8c-.3 0-37 9.8-37 9.8s36.7 9.8 37 9.8zM213.8 87.8s1.8 4.4 1.8 9.8l-1.8 9.8c.3 0 37-9.8 37-9.8s-36.7-9.8-37-9.8z"/><circle fill="#4F9AD4" cx="88.8" cy="97" r="11.1"/><path fill="#4F9AD4" d="M194.6 83.4c1.4 0 2.6 1.2 2.6 2.6v23.4c0 1.4-1.2 2.6-2.6 2.6h-135.6c-1.4 0-2.6-1.2-2.6-2.6v-23.5c0-1.4 1.2-2.6 2.6-2.6h135.6m0-13.2h-135.6c-8.8 0-15.9 7.1-15.9 15.9v23.4c0 8.8 7.1 15.9 15.9 15.9h135.5c8.8 0 15.9-7.1 15.9-15.9v-23.5c.1-8.7-7-15.8-15.8-15.8zM125.8 165.2c-20.1 0-37 30.3-37 66.2 0 4.1.2 8.1.6 12 10.3 3.2 22.8 5.2 36.4 5.2 13.6 0 26.1-1.9 36.4-5.2.4-3.9.7-7.9.7-12 0-35.9-17-66.2-37.1-66.2zm-22.3 64.6c0 2.4-2 4.4-4.4 4.4-2.4 0-4.4-2-4.4-4.4v-15.2c0-2.4 2-4.4 4.4-4.4 2.4 0 4.4 2 4.4 4.4v15.2zm17.6 0c0 2.4-2 4.4-4.4 4.4-2.4 0-4.4-2-4.4-4.4v-15.2c0-2.4 2-4.4 4.4-4.4 2.4 0 4.4 2 4.4 4.4v15.2zm17.6 0c0 2.4-2 4.4-4.4 4.4-2.4 0-4.4-2-4.4-4.4v-15.2c0-2.4 2-4.4 4.4-4.4 2.4 0 4.4 2 4.4 4.4v15.2zm17.6 0c0 2.4-2 4.4-4.4 4.4-2.4 0-4.4-2-4.4-4.4v-15.2c0-2.4 2-4.4 4.4-4.4 2.4 0 4.4 2 4.4 4.4v15.2zM62.7 113.8v11.4h91.5c1.7 0 3.1 1.4 3.1 3.1 0 1.7-1.4 3.1-3.1 3.1h-91.5v89.1c0 7.6 6.7 14.4 17.6 19.5-.2-2.8-.3-5.6-.3-8.5 0-42 20.1-75 45.8-75 25.7 0 45.8 32.9 45.8 75 0 2.9-.1 5.7-.3 8.5 10.9-5.1 17.6-11.9 17.6-19.5v-106.7h-126.2zM125.8 56.5c-2.2 0-4-1.8-4-4s1.8-4 4-4h62.6c-.7-2.2-1.5-4.4-2.5-6.5h-37.2c-3.7 0-6.7-3-6.7-6.7s3-6.7 6.7-6.7h29.6c-12.1-16.3-31.1-26.5-52.5-26.5-33.6 0-61.3 25.1-65.5 59.3h131c-.2-1.7-.5-3.4-.8-5.1l-64.7.2zm4.6-28c3.8 0 6.9 3.1 6.9 6.9 0 3.8-3.1 6.9-6.9 6.9-3.8 0-6.9-3.1-6.9-6.9 0-3.8 3.1-6.9 6.9-6.9z"/></svg>